inDegrees=no
num_controls=7
num_derivatives=13
num_iterations=108
num_multipliers=7
num_parameters=0
num_slacks=7
num_states=26
objective=0.449581
objective_accelerations=0.048167
objective_balance=0.007617
objective_effort=0.036209
objective_height=0.352643
objective_ligament=0.004944
solver_duration=1596.540549
status=Solve_Succeeded
success=true
DataType=double
version=3
OpenSimVersion=4.5
endheader
time	/jointset/ground_pelvis/pelvis_tilt/value	/jointset/ground_pelvis/pelvis_tx/value	/jointset/ground_pelvis/pelvis_ty/value	/jointset/hip_l/hip_flexion_l/value	/jointset/hip_l/hip_adduction_l/value	/jointset/hip_l/hip_rotation_l/value	/jointset/back/lumbar_extension/value	/jointset/patellofemoral_l/patellar_flexion_l/value	/jointset/knee_l/knee_flexion_l/value	/jointset/knee_l/knee_adduction_l/value	/jointset/knee_l/knee_rotation_l/value	/jointset/ankle_l/ankle_angle_l/value	/jointset/subtalar_l/subtalar_angle_l/value	/jointset/ground_pelvis/pelvis_tilt/speed	/jointset/ground_pelvis/pelvis_tx/speed	/jointset/ground_pelvis/pelvis_ty/speed	/jointset/hip_l/hip_flexion_l/speed	/jointset/hip_l/hip_adduction_l/speed	/jointset/hip_l/hip_rotation_l/speed	/jointset/back/lumbar_extension/speed	/jointset/patellofemoral_l/patellar_flexion_l/speed	/jointset/knee_l/knee_flexion_l/speed	/jointset/knee_l/knee_adduction_l/speed	/jointset/knee_l/knee_rotation_l/speed	/jointset/ankle_l/ankle_angle_l/speed	/jointset/subtalar_l/subtalar_angle_l/speed	/forceset/tau_hip_flexion_l	/forceset/tau_hip_adduction_l	/forceset/tau_hip_rotation_l	/forceset/tau_knee_flexion_l	/forceset/tau_ankle_angle_l	/forceset/tau_subtalar_angle_l	/forceset/tau_lumbar_extension	lambda_cid13_p0	lambda_cid13_p1	lambda_cid13_p2	lambda_cid13_p3	lambda_cid13_p4	lambda_cid13_p5	lambda_cid14_p0	/jointset/ground_pelvis/pelvis_tilt/accel	/jointset/ground_pelvis/pelvis_tx/accel	/jointset/ground_pelvis/pelvis_ty/accel	/jointset/hip_l/hip_flexion_l/accel	/jointset/hip_l/hip_adduction_l/accel	/jointset/hip_l/hip_rotation_l/accel	/jointset/back/lumbar_extension/accel	/jointset/patellofemoral_l/patellar_flexion_l/accel	/jointset/knee_l/knee_flexion_l/accel	/jointset/knee_l/knee_adduction_l/accel	/jointset/knee_l/knee_rotation_l/accel	/jointset/ankle_l/ankle_angle_l/accel	/jointset/subtalar_l/subtalar_angle_l/accel	gamma_cid13_p0	gamma_cid13_p1	gamma_cid13_p2	gamma_cid13_p3	gamma_cid13_p4	gamma_cid13_p5	gamma_cid14_p0
0.5	-0.4419623067783021	-0.07452180056775248	0.7684127323635375	1.241923676598426	-0.3088265439990656	-0.05667187378362534	-0.3280281029668454	0.6609329797920406	0.6609329797920422	-0.171861828931716	0.173958286523533	0.02521615620298746	-0.05017019369295007	-0.7387505040755049	-0.2771281334664766	-0.477137540355519	2.326066611299603	-0.04198228362091533	0.5907979738092077	-0.6239885967901948	1.705623411022253	1.705623411022246	-0.005991554509994476	0.00107153051105122	0.2054026266891592	-0.0211745853512232	-0.2403745547295467	0.02070685830231527	-0.02135302438406208	-0.201212605647009	0.1483870353508642	0.03811453858868259	0.2168170353866106	8.705174808208161	-20.86194470745691	6.104214356559321	-5.271805352713478	-606.7322630062267	-56.60522169186012	-29.89222838333211	0.5568503594888524	0.6642204680787283	-0.3168994610888002	-1.376243607214906	0.61081230806385	-0.2482483611149426	1.681119207612465	-0.9875015809916167	-0.9875015809916184	0.1189170893185735	-0.07578658305071648	-0.07562059655764292	0.5950759005498558	-1.497027382966672e-07	-8.567061805469283e-07	8.051566684880077e-07	-3.483721812578873e-08	-2.550593244600614e-07	3.968698607111623e-09	-2.280613588703542e-07
0.51	-0.4493204964040515	-0.07725953223843328	0.7636264670998097	1.265111461949465	-0.3092175878967976	-0.05077738353885879	-0.334183851412101	0.6779372018023859	0.6779372018023868	-0.1719188224712343	0.1739666846260811	0.02726539269669198	-0.05035409259839165	-0.7328039586301567	-0.2703926770506148	-0.4800222705468824	2.311186074146155	-0.03628847666313459	0.5879828243293314	-0.6070875865869388	1.694984253503043	1.69498425350304	-0.005478088180496953	0.0006811338391887944	0.2043801020914635	-0.01567323863064238	-0.2482385500241554	0.02122296326214864	-0.02147872150590227	-0.2025500604076203	0.148647438917048	0.03869984237996838	0.222913085201412	8.562568960457936	-20.9828711257172	5.99978658823153	-5.32273063512645	-610.9421675775714	-56.24742947359936	-28.93249457104953	0.6260483092480817	0.6820364797909095	-0.2603285308671648	-1.589649830423267	0.5393434345965923	-0.3159669570769784	1.705617777781888	-1.13758453628789	-1.13758453628763	0.006831838055673632	-0.009936853148325521	-0.1252576304307267	0.5174679894320825	-2.070658844398695e-07	-7.128278033469362e-07	1.061367678877276e-06	2.716833346453278e-08	-2.877970170844678e-07	5.358379934440363e-08	-2.529214580958073e-07
0.52	-0.4566167222409094	-0.07992914369466526	0.7588141407876269	1.288141303716767	-0.3095535580159589	-0.04491460853202164	-0.3401683845851042	0.6948279398977587	0.6948279398977588	-0.1719728272607979	0.1739733246331318	0.0293024660966085	-0.05048501725030344	-0.7263577462971973	-0.2635040905767126	-0.4823497500465283	2.294477894552172	-0.03096752790676726	0.5844549262233346	-0.5897455423396937	1.682926628027744	1.682926628027741	-0.005393804519096783	0.0007199114115641739	0.2029700079315597	-0.01057973464526605	-0.2561025453187644	0.02173906822198185	-0.02160441862774103	-0.2038875151682318	0.1489078424832316	0.03928514617125398	0.2290091350162133	8.4123846586436	-21.10540259717206	5.898963900509509	-5.366861183855004	-615.2762572003684	-55.95682463337463	-27.9586419266721	0.6567837370110975	0.6948464796867971	-0.2054493227452673	-1.741772095321175	0.5362406677811662	-0.390798086339062	1.769326016410296	-1.271195172209499	-1.271195172209518	0.03308055569910254	0.01004826579790484	-0.1531345089992857	0.5135073535089578	-2.526841469560093e-07	-5.841880734171104e-07	1.262257969870595e-06	8.500328857720785e-08	-3.135594825379407e-07	9.829315007294204e-08	-2.696062681527415e-07
0.53	-0.4638459857964745	-0.08252919682841013	0.7539813871682454	1.310995098087107	-0.3098377622945843	-0.03908942814085156	-0.3459774659332031	0.7115909735692025	0.7115909735692032	-0.1720278403979117	0.1739811608470729	0.03132365442592219	-0.05056660040675309	-0.7194032162871681	-0.2564889011095458	-0.4841024814271584	2.27598988782682	-0.02588334849382538	0.5805054290730663	-0.5720188455840151	1.669461429684905	1.669461429684894	-0.005592119312282086	0.0008466288336094512	0.2012285044563551	-0.005747567866700947	-0.2640000403345064	0.02222169422521596	-0.02168451056149507	-0.2050914229159449	0.1489319239709138	0.03974165338909726	0.2350661592554231	8.179807230022398	-21.15923594012326	5.78908986949217	-5.309179208998559	-619.6367981956633	-55.56677965011266	-26.97764704561752	0.7285157992060627	0.7075235158858955	-0.1454766035827099	-1.946020424265392	0.4928905916741685	-0.4086333583534195	1.782123759552866	-1.416927977740336	-1.41692797774138	-0.04380756049088445	0.01358396423650465	-0.1905300052064491	0.4663932514674838	-2.614494424848035e-07	-5.010187203648813e-07	1.29844660624779e-06	1.059772889967784e-07	-3.101209614175302e-07	1.260656852851962e-07	-2.662423862858005e-07
0.54	-0.4710029584186977	-0.08505856440035206	0.7491340479234853	1.333655271297568	-0.3100714479763557	-0.03330606428698063	-0.3516077238628638	0.7282128060947343	0.7282128060947354	-0.1720843406956901	0.1739901843320001	0.03332625337279875	-0.05060019751312964	-0.71189955962885	-0.2493669782161297	-0.4852668751222214	2.255753662576544	-0.02086380853594473	0.5760916187634925	-0.5539808586520876	1.654686398845297	1.65468639884528	-0.005691236652008974	0.0009573656087993388	0.1992521314441346	-0.0009825246306479562	-0.2718975353502451	0.02270432022845015	-0.02176460249524941	-0.206295330663658	0.1489560054585976	0.04019816060694065	0.2411231834946329	7.943631485738359	-21.21603792345421	5.683800377060294	-5.270510002446203	-624.0723816078366	-55.24723352807466	-25.99779747999848	0.7666090666688504	0.7161931649366684	-0.08778178563184146	-2.091415800305651	0.52331277676892	-0.4836607181999007	1.831584051660055	-1.533161671563059	-1.53316167156306	0.05292004639078489	0.00685213642662418	-0.2001084164024426	0.5000826450065349	-2.294412426233428e-07	-4.681570183261643e-07	1.152412135390123e-06	8.616895656440318e-08	-2.743749657898442e-07	1.350996160964548e-07	-2.406969729286144e-07
